<svg width="651" height="327" viewBox="0 0 651 327" fill="none" xmlns="http://www.w3.org/2000/svg">
<path d="M237.019 240.019L165.626 270.752C150.978 277.057 144.015 280.028 137.107 280.294C130.947 280.531 124.822 279.245 119.277 276.55C113.059 273.529 107.879 268.008 97.0038 256.344L77.777 235.722C68.4248 225.691 61.4791 218.239 56.586 211.961C51.6997 205.692 48.9732 200.73 47.9341 195.709C46.068 186.693 47.5842 177.306 52.1936 169.335C54.7604 164.897 58.9103 161.046 65.5218 156.633C72.1425 152.215 81.0808 147.328 93.1152 140.752L177.124 94.8411C189.924 87.846 199.437 82.6492 207.164 79.2857C214.884 75.9254 220.648 74.4766 225.958 74.8296C235.493 75.4633 244.426 79.7129 250.933 86.7106C254.558 90.6083 257.07 95.9942 259.334 104.104C261.599 112.221 263.569 122.88 266.217 137.224L272.827 173.024C274.445 181.784 275.642 188.275 276.222 193.552C276.8 198.809 276.751 202.759 275.924 206.431C274.436 213.041 271.184 219.124 266.516 224.034C263.922 226.762 260.665 228.997 255.972 231.437C251.263 233.886 245.201 236.497 237.019 240.019Z" stroke="url(#paint0_linear_96_128)" stroke-width="3"/>
<path d="M334.646 166.344H370.166V172.488H334.646V166.344ZM335.414 201H328.31V133.8H374.39V139.944H335.414V201ZM417.142 201V189.864L416.854 188.04V169.416C416.854 165.128 415.638 161.832 413.206 159.528C410.838 157.224 407.286 156.072 402.55 156.072C399.286 156.072 396.182 156.616 393.238 157.704C390.294 158.792 387.798 160.232 385.75 162.024L382.678 156.936C385.238 154.76 388.31 153.096 391.894 151.944C395.478 150.728 399.254 150.12 403.222 150.12C409.75 150.12 414.774 151.752 418.294 155.016C421.878 158.216 423.67 163.112 423.67 169.704V201H417.142ZM399.766 201.48C395.99 201.48 392.694 200.872 389.878 199.656C387.126 198.376 385.014 196.648 383.542 194.472C382.07 192.232 381.334 189.672 381.334 186.792C381.334 184.168 381.942 181.8 383.158 179.688C384.438 177.512 386.486 175.784 389.302 174.504C392.182 173.16 396.022 172.488 400.822 172.488H418.198V177.576H401.014C396.15 177.576 392.758 178.44 390.838 180.168C388.982 181.896 388.054 184.04 388.054 186.6C388.054 189.48 389.174 191.784 391.414 193.512C393.654 195.24 396.79 196.104 400.822 196.104C404.662 196.104 407.958 195.24 410.71 193.512C413.526 191.72 415.574 189.16 416.854 185.832L418.39 190.536C417.11 193.864 414.87 196.52 411.67 198.504C408.534 200.488 404.566 201.48 399.766 201.48ZM442.183 201V150.6H448.711V164.328L448.039 161.928C449.447 158.088 451.815 155.176 455.143 153.192C458.471 151.144 462.599 150.12 467.527 150.12V156.744C467.271 156.744 467.015 156.744 466.759 156.744C466.503 156.68 466.247 156.648 465.991 156.648C460.679 156.648 456.519 158.28 453.511 161.544C450.503 164.744 448.999 169.32 448.999 175.272V201H442.183ZM542.94 150.12C547.036 150.12 550.588 150.92 553.596 152.52C556.668 154.056 559.036 156.424 560.7 159.624C562.428 162.824 563.292 166.856 563.292 171.72V201H556.476V172.392C556.476 167.08 555.196 163.08 552.636 160.392C550.14 157.64 546.588 156.264 541.98 156.264C538.524 156.264 535.516 157 532.956 158.472C530.46 159.88 528.508 161.96 527.1 164.712C525.756 167.4 525.084 170.664 525.084 174.504V201H518.268V172.392C518.268 167.08 516.988 163.08 514.428 160.392C511.868 157.64 508.284 156.264 503.676 156.264C500.284 156.264 497.308 157 494.748 158.472C492.188 159.88 490.204 161.96 488.796 164.712C487.452 167.4 486.78 170.664 486.78 174.504V201H479.964V150.6H486.492V164.232L485.436 161.832C486.972 158.184 489.436 155.336 492.828 153.288C496.284 151.176 500.348 150.12 505.02 150.12C509.948 150.12 514.14 151.368 517.596 153.864C521.052 156.296 523.292 159.976 524.316 164.904L521.628 163.848C523.1 159.752 525.692 156.456 529.404 153.96C533.18 151.4 537.692 150.12 542.94 150.12ZM581.776 201V129.768H588.592V201H581.776ZM607.942 220.104C605.574 220.104 603.302 219.72 601.126 218.952C599.014 218.184 597.19 217.032 595.654 215.496L598.822 210.408C600.102 211.624 601.478 212.552 602.95 213.192C604.486 213.896 606.182 214.248 608.038 214.248C610.278 214.248 612.198 213.608 613.798 212.328C615.462 211.112 617.03 208.936 618.502 205.8L621.766 198.408L622.534 197.352L643.27 150.6H649.99L624.742 207.048C623.334 210.312 621.766 212.904 620.038 214.824C618.374 216.744 616.55 218.088 614.566 218.856C612.582 219.688 610.374 220.104 607.942 220.104ZM621.382 202.44L598.15 150.6H605.254L625.798 196.872L621.382 202.44Z" fill="white"/>
<defs>
<linearGradient id="paint0_linear_96_128" x1="130.366" y1="288.5" x2="244.866" y2="65.0001" gradientUnits="userSpaceOnUse">
<stop stop-color="#005909"/>
<stop offset="0.465633" stop-color="#A7CAAB"/>
<stop offset="0.874299" stop-color="#21842B"/>
</linearGradient>
</defs>
</svg>
