<svg width="198" height="185" viewBox="0 0 198 185" fill="none" xmlns="http://www.w3.org/2000/svg">
<mask id="path-1-inside-1_297_157" fill="white">
<path d="M191.597 77.0594C196.151 92.345 198.428 99.9877 197.608 107.11C196.886 113.392 194.475 119.361 190.631 124.383C186.274 130.076 179.327 133.993 165.435 141.827L111.388 172.304C99.019 179.279 92.8345 182.766 86.3884 183.71C80.6947 184.544 74.8833 183.961 69.4687 182.013C63.3386 179.807 57.9701 175.161 47.2332 165.868L33.284 153.794C14.7093 137.718 5.42193 129.679 2.42086 120.344C-0.209204 112.163 0.262415 103.3 3.74586 95.4446C7.72068 86.4807 17.8086 79.4734 37.9846 65.4587L98.8648 23.17C120.326 8.26273 131.056 0.809078 141.236 0.395589C150.147 0.033612 158.86 3.0872 165.596 8.93271C173.291 15.6101 177.021 28.1315 184.481 53.1743L191.597 77.0594Z"/>
</mask>
<path d="M191.597 77.0594C196.151 92.345 198.428 99.9877 197.608 107.11C196.886 113.392 194.475 119.361 190.631 124.383C186.274 130.076 179.327 133.993 165.435 141.827L111.388 172.304C99.019 179.279 92.8345 182.766 86.3884 183.71C80.6947 184.544 74.8833 183.961 69.4687 182.013C63.3386 179.807 57.9701 175.161 47.2332 165.868L33.284 153.794C14.7093 137.718 5.42193 129.679 2.42086 120.344C-0.209204 112.163 0.262415 103.3 3.74586 95.4446C7.72068 86.4807 17.8086 79.4734 37.9846 65.4587L98.8648 23.17C120.326 8.26273 131.056 0.809078 141.236 0.395589C150.147 0.033612 158.86 3.0872 165.596 8.93271C173.291 15.6101 177.021 28.1315 184.481 53.1743L191.597 77.0594Z" stroke="url(#paint0_linear_297_157)" stroke-width="20" mask="url(#path-1-inside-1_297_157)"/>
<defs>
<linearGradient id="paint0_linear_297_157" x1="80.7681" y1="190.413" x2="157.479" y2="-9.44877" gradientUnits="userSpaceOnUse">
<stop stop-color="#005909"/>
<stop offset="0.465633" stop-color="#A7CAAB"/>
<stop offset="0.874299" stop-color="#21842B"/>
</linearGradient>
</defs>
</svg>
